<svg width="74" height="31" viewBox="0 0 74 31" fill="none" xmlns="http://www.w3.org/2000/svg">
<path d="M14.9354 6.28L22.7114 26.312C23.01 27.08 23.3407 27.6133 23.7034 27.912C24.0874 28.1893 24.4287 28.3387 24.7274 28.36V29C24.0874 28.9573 23.33 28.936 22.4554 28.936C21.602 28.9147 20.738 28.904 19.8634 28.904C18.882 28.904 17.954 28.9147 17.0794 28.936C16.2047 28.936 15.5114 28.9573 14.9994 29V28.36C16.0874 28.3173 16.77 28.136 17.0474 27.816C17.346 27.4747 17.282 26.76 16.8554 25.672L11.4154 10.792L11.9914 9.96L7.12737 22.632C6.65804 23.8053 6.37004 24.7653 6.26337 25.512C6.17804 26.2587 6.23137 26.8347 6.42337 27.24C6.63671 27.6453 6.96737 27.9333 7.41537 28.104C7.88471 28.2533 8.43937 28.3387 9.07937 28.36V29C8.37537 28.9573 7.70337 28.936 7.06337 28.936C6.42337 28.9147 5.77271 28.904 5.11137 28.904C4.64204 28.904 4.19404 28.9147 3.76737 28.936C3.36204 28.936 2.99937 28.9573 2.67937 29V28.36C3.12737 28.2747 3.58604 27.9867 4.05537 27.496C4.52471 27.0053 4.98337 26.1733 5.43137 25L12.7274 6.28C13.0687 6.30133 13.4314 6.312 13.8154 6.312C14.2207 6.312 14.594 6.30133 14.9354 6.28ZM17.1754 19.784V20.424H7.63937L7.95937 19.784H17.1754ZM39.0384 12.104V25.512C39.0384 26.472 39.1877 27.1867 39.4864 27.656C39.785 28.104 40.3184 28.328 41.0864 28.328V29C40.425 28.936 39.7637 28.904 39.1024 28.904C38.2064 28.904 37.3744 28.936 36.6064 29C35.8384 29.064 35.113 29.1813 34.4304 29.352V26.472C33.9184 27.5387 33.2037 28.3067 32.2864 28.776C31.3904 29.224 30.3877 29.448 29.2784 29.448C28.3824 29.448 27.657 29.3307 27.1024 29.096C26.5477 28.8613 26.1104 28.5627 25.7904 28.2C25.4277 27.7947 25.1717 27.2613 25.0224 26.6C24.873 25.9387 24.7984 25.0853 24.7984 24.04V15.944C24.7984 14.984 24.649 14.28 24.3504 13.832C24.073 13.3627 23.5397 13.128 22.7504 13.128V12.456C23.433 12.52 24.0944 12.552 24.7344 12.552C25.6304 12.552 26.4624 12.52 27.2304 12.456C28.0197 12.3707 28.745 12.2533 29.4064 12.104V25.352C29.4064 25.8853 29.449 26.3547 29.5344 26.76C29.641 27.1653 29.833 27.4853 30.1104 27.72C30.3877 27.9333 30.793 28.04 31.3264 28.04C31.9024 28.04 32.4144 27.88 32.8624 27.56C33.3317 27.24 33.705 26.8027 33.9824 26.248C34.281 25.672 34.4304 25.032 34.4304 24.328V15.944C34.4304 14.984 34.281 14.28 33.9824 13.832C33.705 13.3627 33.1717 13.128 32.3824 13.128V12.456C33.065 12.52 33.7264 12.552 34.3664 12.552C35.2624 12.552 36.0944 12.52 36.8624 12.456C37.6517 12.3707 38.377 12.2533 39.0384 12.104ZM52.3166 12.008C52.9993 12.008 53.554 12.1573 53.9806 12.456C54.4073 12.7333 54.7166 13.096 54.9086 13.544C55.122 13.992 55.2286 14.4613 55.2286 14.952C55.2286 15.7413 54.994 16.392 54.5246 16.904C54.0766 17.3947 53.4793 17.64 52.7326 17.64C51.986 17.64 51.3993 17.4587 50.9726 17.096C50.5673 16.712 50.3646 16.2107 50.3646 15.592C50.3646 14.9947 50.4926 14.504 50.7486 14.12C51.026 13.7147 51.3673 13.3733 51.7726 13.096C51.474 13.0107 51.1753 13.0213 50.8766 13.128C50.4713 13.192 50.0873 13.3627 49.7246 13.64C49.362 13.896 49.0526 14.2267 48.7966 14.632C48.5406 15.016 48.338 15.4427 48.1886 15.912C48.0393 16.36 47.9646 16.7973 47.9646 17.224V25.704C47.9646 26.728 48.21 27.4213 48.7006 27.784C49.2126 28.1467 49.97 28.328 50.9726 28.328V29C50.482 28.9787 49.7673 28.9573 48.8286 28.936C47.89 28.8933 46.9086 28.872 45.8846 28.872C45.0313 28.872 44.1673 28.8933 43.2926 28.936C42.418 28.9573 41.7566 28.9787 41.3086 29V28.328C42.0553 28.328 42.578 28.168 42.8766 27.848C43.1966 27.528 43.3566 26.92 43.3566 26.024V15.944C43.3566 14.984 43.2073 14.28 42.9086 13.832C42.6313 13.3627 42.098 13.128 41.3086 13.128V12.456C41.9913 12.52 42.6526 12.552 43.2926 12.552C44.1886 12.552 45.0206 12.52 45.7886 12.456C46.578 12.3707 47.3033 12.2533 47.9646 12.104V15.08C48.2206 14.504 48.562 13.9813 48.9886 13.512C49.4153 13.0427 49.906 12.68 50.4606 12.424C51.0153 12.1467 51.634 12.008 52.3166 12.008ZM59.4621 29.224C58.5021 29.224 57.7021 29.0427 57.0621 28.68C56.4221 28.3173 55.9528 27.8373 55.6541 27.24C55.3555 26.6213 55.2061 25.9493 55.2061 25.224C55.2061 24.3067 55.4088 23.56 55.8141 22.984C56.2408 22.408 56.7848 21.9387 57.4461 21.576C58.1075 21.2133 58.8008 20.9147 59.5261 20.68C60.2728 20.4453 60.9768 20.2213 61.6381 20.008C62.3208 19.7733 62.8648 19.5067 63.2701 19.208C63.6968 18.888 63.9101 18.4827 63.9101 17.992V15.496C63.9101 14.9413 63.8141 14.4507 63.6221 14.024C63.4515 13.576 63.1741 13.2347 62.7901 13C62.4275 12.7653 61.9475 12.648 61.3501 12.648C60.9235 12.648 60.4968 12.712 60.0701 12.84C59.6435 12.9467 59.2915 13.1387 59.0141 13.416C59.6115 13.6293 60.0701 13.96 60.3901 14.408C60.7315 14.8347 60.9021 15.3253 60.9021 15.88C60.9021 16.6053 60.6461 17.1813 60.1341 17.608C59.6435 18.0347 59.0568 18.248 58.3741 18.248C57.6061 18.248 57.0195 18.0133 56.6141 17.544C56.2301 17.0533 56.0381 16.4667 56.0381 15.784C56.0381 15.1653 56.1875 14.6533 56.4861 14.248C56.8061 13.8427 57.2435 13.4587 57.7981 13.096C58.3955 12.7547 59.1101 12.488 59.9421 12.296C60.7955 12.104 61.7128 12.008 62.6941 12.008C63.6755 12.008 64.5608 12.1147 65.3501 12.328C66.1395 12.52 66.8008 12.8827 67.3341 13.416C67.8248 13.9067 68.1448 14.5147 68.2941 15.24C68.4435 15.944 68.5181 16.84 68.5181 17.928V26.632C68.5181 27.1653 68.5715 27.5387 68.6781 27.752C68.7848 27.944 68.9661 28.04 69.2221 28.04C69.4141 28.04 69.5955 27.9867 69.7661 27.88C69.9581 27.7733 70.1608 27.6453 70.3741 27.496L70.6941 28.04C70.2461 28.424 69.7235 28.7227 69.1261 28.936C68.5501 29.128 67.8995 29.224 67.1741 29.224C66.3848 29.224 65.7555 29.1173 65.2861 28.904C64.8168 28.6693 64.4755 28.36 64.2621 27.976C64.0701 27.592 63.9741 27.144 63.9741 26.632C63.4621 27.4427 62.8435 28.0827 62.1181 28.552C61.3928 29 60.5075 29.224 59.4621 29.224ZM61.7341 27.176C62.1608 27.176 62.5448 27.08 62.8861 26.888C63.2488 26.6747 63.5901 26.3333 63.9101 25.864V19.304C63.7181 19.624 63.4515 19.912 63.1101 20.168C62.7688 20.424 62.4061 20.6907 62.0221 20.968C61.6381 21.224 61.2648 21.512 60.9021 21.832C60.5608 22.152 60.2835 22.5467 60.0701 23.016C59.8568 23.4853 59.7501 24.0507 59.7501 24.712C59.7501 25.544 59.9315 26.1627 60.2941 26.568C60.6568 26.9733 61.1368 27.176 61.7341 27.176Z" fill="#A43700"/>
</svg>
